<?xml version="1.0" standalone="no"?>
<!DOCTYPE svg PUBLIC "-//W3C//DTD SVG 20010904//EN"
 "http://www.w3.org/TR/2001/REC-SVG-20010904/DTD/svg10.dtd">
<svg version="1.0" xmlns="http://www.w3.org/2000/svg"
 width="3301.000000pt" height="3301.000000pt" viewBox="0 0 3301.000000 3301.000000"
 preserveAspectRatio="xMidYMid meet">
<metadata>
Created by potrace 1.14, written by Peter Selinger 2001-2017
</metadata>
<g transform="translate(0.000000,3301.000000) scale(0.100000,-0.100000)"
fill="#000000" stroke="none">
<path d="M17426 22961 c3 -3 15 -6 27 -8 12 -1 51 -8 87 -14 36 -6 79 -13 95
-16 17 -3 62 -11 100 -19 39 -8 81 -17 95 -19 349 -70 860 -238 1180 -387 118
-55 323 -158 395 -198 255 -141 553 -342 766 -515 20 -16 56 -46 80 -65 141
-114 361 -327 532 -515 492 -539 947 -1274 1329 -2145 59 -136 208 -504 248
-615 109 -303 181 -523 300 -925 31 -104 146 -552 156 -610 3 -14 11 -50 19
-80 13 -52 41 -185 51 -240 3 -14 13 -68 24 -120 10 -52 24 -122 30 -155 10
-60 15 -89 25 -135 2 -14 7 -41 10 -60 3 -19 8 -47 11 -62 3 -15 7 -39 9 -55
10 -74 14 -103 24 -163 5 -36 13 -85 16 -110 3 -25 8 -52 10 -60 2 -8 6 -42
10 -75 3 -33 8 -71 10 -85 7 -49 32 -264 40 -345 3 -33 8 -80 11 -104 3 -25 7
-70 9 -100 3 -31 7 -78 9 -106 3 -27 8 -86 11 -130 3 -44 8 -114 11 -155 7
-102 13 -211 30 -585 6 -131 5 -1078 -1 -1190 -8 -148 -15 -702 -9 -722 25
-88 86 85 149 422 14 77 30 160 35 185 6 25 12 61 15 80 3 19 14 85 25 145 10
61 21 126 24 145 3 19 7 44 10 55 2 11 7 43 10 70 4 28 9 57 11 65 2 8 7 38
10 65 8 52 9 64 20 130 3 22 8 54 11 70 2 17 6 41 9 55 3 14 7 41 10 60 2 19
7 50 9 68 3 18 8 52 11 75 3 23 8 53 10 67 2 14 7 43 10 65 3 22 7 51 10 65 2
14 6 48 10 75 3 28 8 57 10 65 2 8 6 38 10 65 3 28 10 77 15 110 5 33 12 80
15 105 3 25 8 52 10 60 2 8 6 38 9 65 3 28 9 79 15 115 19 124 22 145 27 190
3 25 9 70 14 100 5 30 11 78 14 105 6 50 15 113 22 149 2 10 6 44 10 75 3 31
8 65 10 76 2 11 6 40 9 65 5 44 9 76 21 163 3 23 7 53 9 67 8 62 37 267 40
290 2 14 6 50 10 80 3 30 10 80 15 110 5 30 12 82 15 114 3 33 8 62 9 65 2 3
7 38 10 76 4 39 9 77 11 85 2 8 6 40 10 71 3 31 7 65 9 75 2 11 7 48 11 84 4
36 9 72 10 81 2 9 6 40 10 70 3 30 8 65 10 79 6 36 29 215 40 315 4 28 8 61
10 75 4 25 11 78 20 148 5 39 43 335 50 387 2 17 7 59 11 95 3 36 8 67 9 70 2
3 6 34 10 70 3 36 12 110 20 165 8 55 17 125 20 155 4 30 8 66 10 80 2 14 7
50 10 80 3 30 8 62 10 70 2 8 7 46 10 84 3 38 7 71 9 75 2 3 7 39 10 80 4 41
8 77 10 80 2 3 7 38 10 76 4 39 9 81 11 95 6 35 29 221 50 405 3 22 7 51 10
65 2 14 7 50 10 80 10 95 24 206 30 240 3 14 7 52 10 85 3 33 7 70 9 82 3 12
7 49 11 82 3 33 7 68 9 78 2 10 7 45 10 78 4 33 9 74 11 90 10 75 17 132 20
160 2 17 6 50 9 75 3 25 8 68 12 95 3 28 7 61 9 75 2 14 6 50 10 80 3 30 12
107 21 170 17 136 21 167 29 240 4 30 8 66 10 80 2 14 7 54 10 90 4 36 9 72
10 81 2 9 6 40 10 70 6 58 12 107 20 167 2 20 11 96 20 167 9 72 18 146 21
165 2 19 7 58 10 85 2 28 6 61 9 75 2 14 7 54 10 90 4 36 8 72 10 80 2 8 6 44
10 80 10 94 23 198 30 250 9 60 18 148 19 180 l1 35 -3647 0 c-2005 0 -3644
-2 -3642 -4z"/>
<path d="M16367 21674 c-1 -1 -65 -5 -142 -9 -153 -7 -182 -9 -265 -19 -30 -4
-75 -9 -100 -12 -72 -8 -264 -39 -310 -50 -14 -3 -36 -8 -50 -10 -14 -3 -56
-11 -95 -20 -38 -9 -77 -17 -85 -19 -164 -36 -555 -164 -703 -228 -17 -8 -57
-25 -87 -37 -150 -61 -455 -219 -634 -329 -424 -261 -852 -624 -1161 -984 -27
-32 -55 -64 -60 -70 -132 -150 -310 -403 -479 -679 -47 -78 -208 -391 -258
-503 -97 -218 -213 -552 -268 -771 -21 -87 -70 -305 -75 -339 -1 -11 -8 -49
-13 -85 -6 -36 -14 -85 -17 -110 -3 -25 -8 -52 -10 -60 -2 -8 -6 -50 -10 -92
-3 -42 -8 -85 -9 -95 -25 -128 -25 -727 -1 -943 2 -19 7 -60 10 -90 34 -311
110 -661 211 -975 140 -431 352 -866 603 -1240 71 -104 230 -321 277 -375 12
-14 52 -61 90 -105 429 -499 993 -935 1569 -1214 83 -40 157 -76 166 -81 38
-20 244 -102 378 -149 191 -69 440 -139 626 -177 11 -2 31 -6 45 -9 57 -13
118 -24 160 -30 25 -3 86 -12 135 -20 50 -8 122 -17 160 -20 39 -4 81 -8 95
-11 42 -7 357 -18 485 -17 134 0 384 11 394 17 3 2 44 6 91 10 47 4 99 9 115
11 17 3 44 7 60 10 17 2 48 7 70 10 96 15 258 46 360 70 61 15 126 30 145 35
143 33 439 134 636 216 223 92 632 302 691 353 7 6 14 11 17 11 28 0 504 343
602 435 7 5 40 35 75 65 116 99 412 403 518 530 321 385 591 820 765 1235 26
61 51 119 56 130 52 115 202 592 223 711 3 16 15 72 26 124 11 52 22 109 25
125 14 82 36 226 41 270 3 28 8 64 10 80 2 17 7 73 10 125 4 52 8 111 10 130
6 49 6 479 1 570 -10 152 -28 323 -52 489 -13 96 -69 361 -104 495 -52 203
-161 522 -226 664 -13 29 -24 57 -24 62 0 21 -216 437 -296 570 -268 445 -597
840 -984 1180 -46 41 -93 83 -105 93 -40 36 -292 225 -385 289 -314 215 -679
405 -1046 543 -82 31 -156 58 -164 61 -8 2 -82 24 -165 49 -82 26 -168 50
-190 55 -179 41 -364 79 -401 84 -24 3 -48 7 -52 9 -4 3 -34 8 -67 11 -33 4
-72 9 -88 11 -15 2 -55 6 -90 10 -34 4 -74 8 -90 10 -87 11 -581 27 -590 19z"/>
<path d="M9798 21603 c-17 -20 -55 -136 -73 -223 -2 -8 -8 -36 -14 -63 -6 -26
-14 -64 -17 -85 -3 -20 -7 -45 -10 -54 -3 -10 -7 -30 -10 -45 -3 -16 -14 -75
-24 -133 -11 -58 -22 -118 -25 -135 -3 -16 -9 -55 -15 -85 -5 -30 -12 -68 -14
-85 -3 -16 -7 -43 -10 -60 -3 -16 -16 -100 -30 -185 -13 -85 -27 -173 -31
-195 -3 -22 -8 -53 -10 -70 -4 -31 -15 -97 -20 -126 -2 -9 -6 -40 -10 -70 -4
-30 -8 -56 -10 -59 -1 -3 -6 -32 -10 -65 -3 -33 -11 -82 -16 -109 -5 -27 -12
-74 -15 -104 -3 -31 -8 -65 -10 -76 -2 -12 -6 -41 -9 -66 -4 -25 -10 -67 -15
-95 -5 -27 -12 -72 -15 -100 -3 -27 -10 -77 -15 -110 -5 -33 -12 -80 -15 -105
-3 -25 -10 -72 -15 -105 -5 -33 -11 -82 -15 -110 -6 -47 -11 -84 -20 -145 -2
-14 -9 -63 -16 -110 -6 -47 -13 -94 -14 -105 -7 -47 -26 -193 -31 -230 -2 -22
-7 -51 -9 -65 -2 -14 -7 -49 -10 -79 -4 -30 -8 -62 -10 -71 -2 -9 -6 -41 -10
-71 -3 -30 -9 -67 -12 -84 -3 -16 -6 -41 -8 -55 -4 -35 -16 -130 -20 -160 -2
-14 -7 -50 -10 -80 -4 -30 -9 -64 -11 -75 -2 -11 -6 -42 -9 -70 -4 -27 -8 -62
-11 -77 -2 -15 -6 -49 -9 -75 -3 -27 -7 -59 -9 -73 -3 -14 -8 -50 -11 -80 -3
-30 -8 -62 -10 -70 -2 -8 -6 -42 -10 -75 -3 -33 -10 -87 -15 -120 -5 -33 -12
-86 -15 -118 -4 -32 -8 -66 -10 -76 -2 -10 -6 -42 -10 -72 -3 -30 -8 -65 -10
-79 -3 -14 -7 -50 -10 -80 -3 -30 -7 -66 -10 -80 -5 -25 -10 -63 -21 -155 -3
-27 -7 -61 -9 -75 -2 -14 -7 -49 -10 -79 -4 -30 -8 -61 -10 -70 -1 -9 -6 -43
-9 -76 -4 -33 -9 -71 -11 -85 -4 -26 -56 -434 -80 -627 -9 -80 -16 -131 -25
-198 -16 -118 -22 -168 -26 -210 -2 -22 -6 -56 -9 -75 -3 -19 -8 -55 -11 -80
-2 -25 -7 -60 -9 -78 -3 -18 -7 -54 -10 -80 -3 -26 -7 -63 -10 -82 -5 -34 -7
-49 -20 -155 -4 -27 -8 -61 -10 -75 -2 -14 -6 -54 -10 -90 -4 -36 -8 -72 -10
-80 -2 -8 -7 -40 -10 -70 -6 -59 -10 -97 -25 -205 -5 -38 -12 -92 -15 -120 -3
-27 -10 -86 -16 -130 -5 -44 -12 -96 -14 -115 -8 -71 -17 -145 -20 -160 -2 -8
-6 -42 -9 -75 -4 -33 -9 -71 -11 -85 -2 -14 -6 -52 -10 -85 -3 -33 -8 -71 -10
-85 -2 -14 -6 -47 -10 -75 -3 -27 -8 -66 -10 -85 -4 -35 -21 -173 -31 -260 -3
-25 -7 -56 -9 -70 -3 -14 -7 -50 -10 -80 -3 -30 -7 -65 -9 -77 -3 -12 -7 -48
-11 -80 -3 -32 -10 -87 -15 -122 -5 -35 -8 -67 -8 -70 1 -3 -1 -24 -5 -46 -4
-22 -9 -62 -12 -90 -3 -27 -12 -102 -20 -165 -8 -63 -17 -140 -20 -170 -4 -30
-8 -66 -10 -80 -2 -14 -6 -50 -10 -80 -3 -30 -8 -71 -10 -90 -3 -19 -7 -53 -9
-75 -3 -22 -10 -76 -15 -120 -6 -44 -13 -109 -17 -145 -4 -36 -12 -102 -19
-147 l-12 -83 41 -1 c302 -4 7256 -2 7256 2 0 3 -48 13 -107 23 -808 130
-1588 431 -2237 865 -203 136 -188 125 -286 200 -92 70 -280 226 -345 286
-172 159 -405 400 -502 521 -66 81 -89 109 -118 144 -134 156 -390 530 -558
815 -188 319 -394 727 -549 1090 -32 77 -70 165 -83 195 -83 193 -266 700
-335 925 -10 33 -30 98 -45 145 -14 47 -28 92 -30 100 -2 8 -16 56 -30 105
-29 101 -75 272 -80 295 -2 8 -18 71 -35 140 -18 69 -33 132 -35 140 -2 8 -12
55 -24 103 -12 49 -23 103 -26 120 -3 18 -10 48 -15 67 -5 19 -12 52 -16 74
-3 21 -7 46 -9 55 -2 9 -11 49 -19 88 -9 40 -18 87 -21 105 -9 54 -25 141 -30
168 -10 47 -15 78 -20 116 -3 22 -7 50 -10 64 -3 14 -7 39 -10 55 -8 61 -16
111 -20 135 -3 14 -7 48 -11 75 -3 28 -8 59 -10 70 -2 11 -7 43 -9 70 -3 28
-7 61 -10 75 -2 14 -6 48 -10 75 -3 28 -8 64 -10 80 -2 17 -7 59 -10 95 -3 36
-8 76 -10 90 -2 14 -7 61 -11 105 -3 44 -8 89 -10 100 -2 11 -6 58 -9 105 -4
47 -8 101 -10 120 -3 33 -9 128 -21 305 -3 44 -7 107 -9 139 -19 296 -25 1194
-10 1621 4 132 9 329 9 437 1 204 -5 237 -36 201z"/>
</g>
</svg>
