<svg id="Layer_1" data-name="Layer 1" xmlns="http://www.w3.org/2000/svg" viewBox="0 0 792 612">
<defs><style>.cls-1{fill:#1c75bc;}.cls-2{fill:#00a14b;}.cls-3{fill:#414042;}</style></defs>
<path class="cls-1" d="M136.49,257.35c-1.08-.11-4.77,22.58-14.88,106.49h71.56a56.41,56.41,0,0,1-22.33-8c-8.8-5.54-16.37-13.91-22.9-28.05C131.9,293,137.84,257.48,136.49,257.35Z"/><path class="cls-2" d="M267,350.67c1.08.11,4.77-22.58,14.89-106.49H210.35a56.36,56.36,0,0,1,22.33,8c8.8,5.55,16.37,13.91,22.9,28.06C271.62,315,265.68,350.53,267,350.67Z"/><circle class="cls-1" cx="201.76" cy="305.44" r="48.67"/><path class="cls-3" d="M309.37,245.55h6.69v46.26h22.17v5.61H309.37Z"/><path class="cls-3" d="M350.77,297.42v-22l-16.39-29.86H342l7.31,14.32c2,3.92,3.54,7.08,5.16,10.69h.15c1.46-3.38,3.23-6.77,5.23-10.69l7.47-14.32h7.62l-17.39,29.79v22.08Z"/><path class="cls-3" d="M380.33,297.42V245.55h7.31l16.62,26.25a147.79,147.79,0,0,1,9.32,16.85l.15-.08c-.62-6.92-.77-13.23-.77-21.32v-21.7h6.31v51.87H412.5L396,271.1a165.32,165.32,0,0,1-9.7-17.31l-.23.07c.38,6.54.54,12.78.54,21.4v22.16Z"/><path class="cls-3" d="M459.37,297.42,452.75,286c-2.7-4.39-4.39-7.24-6-10.24h-.16c-1.46,3-2.92,5.77-5.62,10.31l-6.23,11.39H427l15.86-26.24-15.24-25.63h7.77l6.85,12.16c1.93,3.39,3.39,6,4.77,8.77h.23c1.47-3.07,2.77-5.46,4.7-8.77l7.08-12.16h7.7L451,270.79l16.16,26.63Z"/><path class="cls-3" d="M499.85,297.42l-16.93-51.87h7.23l8.08,25.55c2.24,7,4.16,13.32,5.54,19.4h.16c1.46-6,3.62-12.55,5.93-19.32l8.77-25.63h7.16l-18.55,51.87Z"/><path class="cls-3" d="M538.1,245.55v51.87h-6.7V245.55Z"/><path class="cls-3" d="M548.88,289.27a23.76,23.76,0,0,0,12,3.38c6.85,0,10.85-3.61,10.85-8.85,0-4.85-2.77-7.62-9.77-10.31-8.47-3-13.7-7.39-13.7-14.7,0-8.08,6.7-14.09,16.78-14.09a23.68,23.68,0,0,1,11.47,2.54l-1.85,5.47a20.62,20.62,0,0,0-9.85-2.46c-7.08,0-9.78,4.23-9.78,7.77,0,4.85,3.16,7.23,10.32,10,8.77,3.39,13.23,7.62,13.23,15.24,0,8-5.92,14.93-18.16,14.93-5,0-10.47-1.46-13.24-3.31Z"/><path class="cls-3" d="M594.44,245.55v51.87h-6.7V245.55Z"/><path class="cls-3" d="M650.47,271c0,17.85-10.85,27.32-24.09,27.32-13.7,0-23.32-10.62-23.32-26.32,0-16.47,10.23-27.25,24.09-27.25C641.31,244.7,650.47,255.56,650.47,271Zm-40.26.85c0,11.08,6,21,16.55,21s16.63-9.78,16.63-21.55c0-10.32-5.39-21.09-16.55-21.09S610.21,260.4,610.21,271.8Z"/><path class="cls-3" d="M659.16,297.42V245.55h7.31L683.1,271.8a146.08,146.08,0,0,1,9.31,16.85l.16-.08c-.62-6.92-.77-13.23-.77-21.32v-21.7h6.31v51.87h-6.78L674.86,271.1a165.18,165.18,0,0,1-9.69-17.31l-.23.07c.38,6.54.53,12.78.53,21.4v22.16Z"/><path class="cls-3" d="M315.78,316.06v26.5h-3.43v-26.5Z"/><path class="cls-3" d="M332,342.56v-26.5h3.73l8.5,13.41a76.85,76.85,0,0,1,4.76,8.61l.07,0c-.31-3.54-.39-6.76-.39-10.89V316.06h3.23v26.5h-3.46L340,329.12a82.66,82.66,0,0,1-4.95-8.85l-.12,0c.19,3.34.27,6.53.27,10.93v11.32Z"/><path class="cls-3" d="M373.11,319h-8.06v-2.91h19.62V319h-8.09v23.59h-3.47Z"/><path class="cls-3" d="M411.57,330.14h-10.3v9.55h11.48v2.87h-14.9v-26.5h14.31v2.87H401.27v8.38h10.3Z"/>
<path class="cls-3" d="M427.42,316.42a35.22,35.22,0,0,1,6.57-.55c3.66,0,6,.66,7.67,2.16a6.59,6.59,0,0,1,2.08,5,7,7,0,0,1-5,6.76v.12c2,.71,3.26,2.6,3.89,5.35a42.26,42.26,0,0,0,2.05,7.27h-3.54a34.39,34.39,0,0,1-1.77-6.33c-.79-3.65-2.2-5-5.31-5.15h-3.22v11.48h-3.43Zm3.43,12.07h3.5c3.65,0,6-2,6-5,0-3.42-2.47-4.91-6.09-4.95a14.54,14.54,0,0,0-3.38.31Z"/>
<path class="cls-3" d="M458.81,342.56v-26.5h3.73l8.5,13.41a75.1,75.1,0,0,1,4.75,8.61l.08,0c-.31-3.54-.39-6.76-.39-10.89V316.06h3.23v26.5h-3.47l-8.41-13.44a82.66,82.66,0,0,1-4.95-8.85l-.12,0c.19,3.34.27,6.53.27,10.93v11.32Z"/>
<path class="cls-3" d="M499.2,334.23l-2.76,8.33h-3.53l9-26.5H506l9,26.5h-3.65l-2.84-8.33Zm8.69-2.68-2.6-7.62c-.59-1.73-1-3.31-1.37-4.84h-.08c-.4,1.57-.83,3.18-1.34,4.8l-2.6,7.66Z"/>
<path class="cls-3" d="M531.21,319h-8.06v-2.91h19.62V319h-8.1v23.59h-3.46Z"/>
<path class="cls-3" d="M559.37,316.06v26.5H556v-26.5Z"/>
<path class="cls-3" d="M598.22,329c0,9.12-5.55,14-12.31,14-7,0-11.91-5.43-11.91-13.45,0-8.42,5.23-13.92,12.3-13.92C593.54,315.63,598.22,321.17,598.22,329Zm-20.57.43c0,5.66,3.07,10.74,8.46,10.74s8.49-5,8.49-11c0-5.27-2.75-10.78-8.45-10.78S577.65,323.65,577.65,329.47Z"/>
<path class="cls-3" d="M612.89,342.56v-26.5h3.74l8.49,13.41a75.28,75.28,0,0,1,4.76,8.61l.08,0c-.32-3.54-.4-6.76-.4-10.89V316.06h3.23v26.5h-3.46l-8.42-13.44a86.29,86.29,0,0,1-4.95-8.85l-.12,0c.2,3.34.28,6.53.28,10.93v11.32Z"/>
<path class="cls-3" d="M653.28,334.23l-2.75,8.33H647l9-26.5h4.13l9,26.5h-3.66l-2.83-8.33Zm8.69-2.68-2.6-7.62c-.59-1.73-1-3.31-1.37-4.84h-.08c-.39,1.57-.83,3.18-1.34,4.8L654,331.55Z"/>
<path class="cls-3" d="M683.29,316.06h3.42v23.63H698v2.87H683.29Z"/></svg>